<svg width="199.734375" height="66.000015" viewBox="0 0 199.734 66" fill="none" xmlns="http://www.w3.org/2000/svg" xmlns:xlink="http://www.w3.org/1999/xlink">
	<desc>
			Created with Pixso.
	</desc>
	<defs/>
	<path id="Vector" d="M74.8 27.86C74.8 26.04 75.24 24.65 76.16 23.68C77.08 22.7 78.4 22.23 80.13 22.23C81.87 22.23 83.18 22.73 84.1 23.68C85.02 24.65 85.47 26.04 85.47 27.86L85.47 39.53C85.47 41.34 85.02 42.73 84.1 43.71C83.18 44.68 81.87 45.15 80.13 45.15C78.4 45.15 77.08 44.68 76.16 43.71C75.24 42.73 74.8 41.34 74.8 39.53L74.8 27.86ZM78.32 39.74C78.32 40.55 78.48 41.13 78.82 41.45C79.16 41.79 79.58 41.94 80.16 41.94C80.71 41.94 81.16 41.79 81.5 41.45C81.84 41.1 82 40.55 82 39.74L82 27.62C82 26.81 81.84 26.23 81.5 25.91C81.16 25.57 80.74 25.41 80.16 25.41C79.6 25.41 79.16 25.57 78.82 25.91C78.48 26.25 78.32 26.81 78.32 27.62L78.32 39.74Z" fill="#000000" fill-opacity="1.000000" fill-rule="nonzero"/>
	<path id="Vector" d="M94.54 38.4L96.93 22.47L101.82 22.47L101.82 44.89L98.48 44.89L98.48 28.8L96.04 44.89L92.7 44.89L90.07 29.04L90.07 44.89L87 44.89L87 22.47L91.89 22.47L94.54 38.4Z" fill="#000000" fill-opacity="1.000000" fill-rule="nonzero"/>
	<path id="Vector" d="M106.97 31.9L111.81 31.9L111.81 35.11L106.97 35.11L106.97 41.68L113.07 41.68L113.07 44.89L103.45 44.89L103.45 22.47L113.07 22.47L113.07 25.67L106.97 25.67L106.97 31.9Z" fill="#000000" fill-opacity="1.000000" fill-rule="nonzero"/>
	<path id="Vector" d="M118.17 44.89L114.64 44.89L114.64 22.47L123.98 22.47L123.98 25.67L118.17 25.67L118.17 44.89Z" fill="#000000" fill-opacity="1.000000" fill-rule="nonzero"/>
	<path id="Vector" d="M135.33 44.89L131.75 44.89L131.15 40.81L126.81 40.81L126.21 44.89L122.98 44.89L126.58 22.47L131.73 22.47L135.33 44.89ZM127.29 37.77L130.68 37.77L128.97 26.44L127.29 37.77Z" fill="#000000" fill-opacity="1.000000" fill-rule="nonzero"/>
	<path id="Vector" d="M151.94 36.56L151.94 39.53C151.94 41.34 151.5 42.73 150.6 43.68C149.71 44.65 148.42 45.13 146.69 45.13C144.95 45.13 143.64 44.65 142.77 43.68C141.87 42.71 141.43 41.31 141.43 39.5L141.43 27.83C141.43 26.02 141.87 24.62 142.77 23.65C143.66 22.68 144.95 22.21 146.69 22.21C148.42 22.21 149.73 22.7 150.6 23.65C151.5 24.62 151.94 26.02 151.94 27.83L151.94 30.01L148.6 30.01L148.6 27.62C148.6 26.81 148.45 26.23 148.1 25.91C147.77 25.57 147.34 25.41 146.77 25.41C146.19 25.41 145.77 25.57 145.42 25.91C145.08 26.25 144.92 26.81 144.92 27.62L144.92 39.76C144.92 40.58 145.08 41.13 145.42 41.47C145.77 41.79 146.19 41.94 146.77 41.94C147.34 41.94 147.77 41.79 148.1 41.47C148.45 41.16 148.6 40.58 148.6 39.76L148.6 36.56L151.94 36.56Z" fill="#000000" fill-opacity="1.000000" fill-rule="nonzero"/>
	<path id="Vector" d="M152.94 22.47L163.82 22.47L163.82 25.67L160.14 25.67L160.14 44.89L156.62 44.89L156.62 25.67L152.94 25.67L152.94 22.47Z" fill="#000000" fill-opacity="1.000000" fill-rule="nonzero"/>
	<path id="Vector" d="M170.19 22.47C171.94 22.47 173.29 22.94 174.16 23.89C175.02 24.83 175.44 26.2 175.44 28.01L175.44 30.93C175.44 32.75 175.02 34.11 174.16 35.06C173.29 36 171.97 36.48 170.19 36.48L168.53 36.48L168.53 44.92L165.01 44.92L165.01 22.47L170.19 22.47ZM168.5 25.67L168.5 33.27L170.16 33.27C170.71 33.27 171.13 33.11 171.45 32.82C171.74 32.54 171.89 31.96 171.89 31.17L171.89 27.8C171.89 26.99 171.74 26.44 171.45 26.15C171.16 25.86 170.71 25.7 170.16 25.7L168.5 25.7L168.5 25.67Z" fill="#000000" fill-opacity="1.000000" fill-rule="nonzero"/>
	<path id="Vector" d="M176.39 27.86C176.39 26.04 176.83 24.65 177.75 23.68C178.67 22.7 179.99 22.23 181.72 22.23C183.46 22.23 184.77 22.73 185.69 23.68C186.61 24.65 187.06 26.04 187.06 27.86L187.06 39.53C187.06 41.34 186.61 42.73 185.69 43.71C184.77 44.68 183.46 45.15 181.72 45.15C179.99 45.15 178.67 44.68 177.75 43.71C176.83 42.73 176.39 41.34 176.39 39.53L176.39 27.86ZM179.91 39.74C179.91 40.55 180.07 41.13 180.41 41.45C180.75 41.79 181.17 41.94 181.75 41.94C182.33 41.94 182.75 41.79 183.09 41.45C183.43 41.1 183.59 40.55 183.59 39.74L183.59 27.62C183.59 26.81 183.43 26.23 183.09 25.91C182.75 25.57 182.33 25.41 181.75 25.41C181.17 25.41 180.75 25.57 180.41 25.91C180.07 26.25 179.91 26.81 179.91 27.62L179.91 39.74Z" fill="#000000" fill-opacity="1.000000" fill-rule="nonzero"/>
	<path id="Vector" d="M191.11 44.89L188.53 44.89L188.53 22.47L191.69 22.47L191.69 35.9L197.16 22.47L199.73 22.47L199.73 44.89L196.55 44.89L196.55 32.17L191.11 44.89ZM194.19 19.18C194.58 19.18 194.92 19.08 195.21 18.87C195.5 18.66 195.63 18.26 195.66 17.71L198.23 17.71C198.18 19 197.81 19.97 197.13 20.65C196.44 21.34 195.45 21.68 194.19 21.68C192.9 21.68 191.93 21.34 191.24 20.65C190.56 19.97 190.16 19 190.09 17.71L192.69 17.71C192.74 18.26 192.87 18.66 193.16 18.87C193.4 19.08 193.74 19.18 194.19 19.18Z" fill="#000000" fill-opacity="1.000000" fill-rule="nonzero"/>
	<path id="Vector" d="M8.17 37L8.17 41.55L17.26 36.14L17.26 31.62L8.17 37Z" fill="#000000" fill-opacity="1.000000" fill-rule="nonzero"/>
	<path id="Vector" d="M8.17 46.89L8.17 51.43L17.26 46.05L17.26 41.52L8.17 46.89Z" fill="#000000" fill-opacity="1.000000" fill-rule="nonzero"/>
	<path id="Vector" d="M8.17 56.8L8.17 61.34L17.26 55.93L17.26 51.43L8.17 56.8Z" fill="#000000" fill-opacity="1.000000" fill-rule="nonzero"/>
	<path id="Vector" d="M8.12 27.78L8.12 32.38L17.26 27.04L17.26 22.42L8.12 27.78Z" fill="#000000" fill-opacity="1.000000" fill-rule="nonzero"/>
	<path id="Vector" d="M12.11 16.19L12.11 11.9L8.01 14.24L8.01 18.84L0 23.36L0 66L4.1 63.63L4.23 25.54L17.26 17.82L17.26 13.22L12.11 16.19Z" fill="#000000" fill-opacity="1.000000" fill-rule="nonzero"/>
	<path id="XMLID_00000141431382712507265890000000991686667553617819_" d="M20.19 34.98L20.19 30.33L40.98 18.29L53.7 25.81L53.7 30.33L40.98 22.78L20.19 34.98Z" fill="#000000" fill-opacity="1.000000" fill-rule="nonzero"/>
	<path id="XMLID_00000094578917096309040410000003406327069087026876_" d="M20.19 44.89L20.19 40.21L40.98 28.2L53.7 35.69L53.7 40.24L40.98 32.69L20.19 44.89Z" fill="#000000" fill-opacity="1.000000" fill-rule="nonzero"/>
	<path id="XMLID_00000178886582288776885330000004303805302893930672_" d="M20.19 54.8L20.19 50.12L40.98 38.11L53.7 45.6L53.7 50.15L40.98 42.6L20.19 54.8Z" fill="#000000" fill-opacity="1.000000" fill-rule="nonzero"/>
	<path id="Vector" d="M41.03 13.74L20.19 25.62L20.19 21.23L41 9.12L53.75 16.55L53.75 21.18L41.03 13.74Z" fill="#000000" fill-opacity="1.000000" fill-rule="nonzero"/>
	<path id="Vector" d="M41.06 4.54L20.19 16.58L20.19 11.95L41.06 0L61.85 12.16L61.85 54.8L57.77 52.43L57.64 14.35L41.06 4.54Z" fill="#000000" fill-opacity="1.000000" fill-rule="nonzero"/>
	<path id="Vector" d="M68.41 16.34L69.25 16.34L69.25 51.59L68.41 51.59L68.41 16.34Z" fill="#000000" fill-opacity="1.000000" fill-rule="evenodd"/>
</svg>
