<svg width="200" height="66" viewBox="0 0 200 66" fill="none" xmlns="http://www.w3.org/2000/svg">
<path d="M74.9336 27.8614C74.9336 26.0478 75.3804 24.6547 76.3004 23.6822C77.2203 22.7097 78.5346 22.2366 80.2693 22.2366C82.0041 22.2366 83.3183 22.736 84.2383 23.6822C85.1582 24.6547 85.605 26.0478 85.605 27.8614V39.5317C85.605 41.3453 85.1582 42.7383 84.2383 43.7109C83.3183 44.6834 82.0041 45.1565 80.2693 45.1565C78.5346 45.1565 77.2203 44.6834 76.3004 43.7109C75.3804 42.7383 74.9336 41.3453 74.9336 39.5317V27.8614ZM78.4557 39.7419C78.4557 40.5567 78.6134 41.135 78.9551 41.4504C79.2968 41.7921 79.7174 41.9498 80.2956 41.9498C80.8476 41.9498 81.2944 41.7921 81.6361 41.4504C81.9778 41.1087 82.1355 40.5567 82.1355 39.7419V27.6248C82.1355 26.81 81.9778 26.2318 81.6361 25.9164C81.2944 25.5747 80.8739 25.417 80.2956 25.417C79.7436 25.417 79.2968 25.5747 78.9551 25.9164C78.6134 26.2581 78.4557 26.81 78.4557 27.6248V39.7419Z" fill="black"/>
<path d="M94.6764 38.4014L97.0683 22.4731H101.957V44.8937H98.6191V28.8077L96.1746 44.8937H92.8365L90.2081 29.0442V44.8937H87.1328V22.4731H92.0217L94.6764 38.4014Z" fill="black"/>
<path d="M107.108 31.9092H111.944V35.1159H107.108V41.687H113.206V44.8937H103.586V22.4731H113.206V25.6798H107.108V31.9092Z" fill="black"/>
<path d="M118.303 44.8937H114.781V22.4731H124.112V25.6798H118.303V44.8937Z" fill="black"/>
<path d="M135.467 44.8937H131.892L131.288 40.8196H126.951L126.346 44.8937H123.113L126.714 22.4731H131.866L135.467 44.8937ZM127.424 37.7706H130.815L129.106 26.4421L127.424 37.7706Z" fill="black"/>
<path d="M152.08 36.5615V39.5317C152.08 41.3453 151.633 42.7383 150.74 43.6846C149.846 44.6571 148.558 45.1302 146.823 45.1302C145.089 45.1302 143.774 44.6571 142.907 43.6846C142.013 42.7121 141.566 41.319 141.566 39.5054V27.8351C141.566 26.0215 142.013 24.6284 142.907 23.6559C143.801 22.6834 145.089 22.2103 146.823 22.2103C148.558 22.2103 149.872 22.7097 150.74 23.6559C151.633 24.6284 152.08 26.0215 152.08 27.8351V30.0167H148.742V27.6248C148.742 26.81 148.584 26.2318 148.243 25.9164C147.901 25.5747 147.48 25.417 146.902 25.417C146.324 25.417 145.903 25.5747 145.562 25.9164C145.22 26.2581 145.062 26.81 145.062 27.6248V39.7682C145.062 40.583 145.22 41.135 145.562 41.4767C145.903 41.7921 146.324 41.9498 146.902 41.9498C147.48 41.9498 147.901 41.7921 148.243 41.4767C148.584 41.1613 148.742 40.583 148.742 39.7682V36.5615H152.08Z" fill="black"/>
<path d="M153.074 22.4731H163.956V25.6798H160.276V44.8937H156.754V25.6798H153.074V22.4731Z" fill="black"/>
<path d="M170.319 22.4731C172.08 22.4731 173.42 22.9462 174.288 23.8925C175.155 24.8387 175.576 26.2055 175.576 28.0191V30.9367C175.576 32.7503 175.155 34.1171 174.288 35.0633C173.42 36.0096 172.106 36.4827 170.319 36.4827H168.663V44.92H165.141V22.4731H170.319ZM168.636 25.6798V33.276H170.292C170.844 33.276 171.265 33.1183 171.58 32.8292C171.869 32.54 172.027 31.9618 172.027 31.1732V27.8089C172.027 26.994 171.869 26.4421 171.58 26.1529C171.291 25.8638 170.844 25.7061 170.292 25.7061H168.636V25.6798Z" fill="black"/>
<path d="M176.52 27.8614C176.52 26.0478 176.966 24.6547 177.886 23.6822C178.806 22.7097 180.12 22.2366 181.855 22.2366C183.59 22.2366 184.904 22.736 185.824 23.6822C186.744 24.6547 187.191 26.0478 187.191 27.8614V39.5317C187.191 41.3453 186.744 42.7383 185.824 43.7109C184.904 44.6834 183.59 45.1565 181.855 45.1565C180.12 45.1565 178.806 44.6834 177.886 43.7109C176.966 42.7383 176.52 41.3453 176.52 39.5317V27.8614ZM180.042 39.7419C180.042 40.5567 180.199 41.135 180.541 41.4504C180.883 41.7921 181.303 41.9498 181.882 41.9498C182.46 41.9498 182.88 41.7921 183.222 41.4504C183.564 41.1087 183.721 40.5567 183.721 39.7419V27.6248C183.721 26.81 183.564 26.2318 183.222 25.9164C182.88 25.5747 182.46 25.417 181.882 25.417C181.303 25.417 180.883 25.5747 180.541 25.9164C180.199 26.2581 180.042 26.81 180.042 27.6248V39.7419Z" fill="black"/>
<path d="M191.244 44.8937H188.668V22.4731H191.822V35.9044L197.289 22.4731H199.865V44.8937H196.685V32.172L191.244 44.8937ZM194.319 19.1876C194.713 19.1876 195.055 19.0824 195.344 18.8722C195.633 18.6619 195.765 18.2676 195.791 17.7157H198.367C198.314 19.0036 197.946 19.9761 197.263 20.6595C196.58 21.3429 195.581 21.6846 194.319 21.6846C193.031 21.6846 192.059 21.3429 191.375 20.6595C190.692 19.9761 190.298 19.0036 190.219 17.7157H192.821C192.873 18.2676 193.005 18.6619 193.294 18.8722C193.531 19.0824 193.872 19.1876 194.319 19.1876Z" fill="black"/>
<path d="M8.30469 37.0084V41.5556L17.3991 36.141V31.6201L8.30469 37.0084Z" fill="black"/>
<path d="M8.30469 46.8913V51.4385L17.3991 46.0502V41.5293L8.30469 46.8913Z" fill="black"/>
<path d="M8.30469 56.8005V61.3477L17.3991 55.9331V51.4385L8.30469 56.8005Z" fill="black"/>
<path d="M8.25391 27.7826V32.3823L17.4009 27.0466V22.4206L8.25391 27.7826Z" fill="black"/>
<path d="M12.2499 16.1912V11.9068L8.14954 14.2461V18.8459L0.132812 23.3668V66L4.23317 63.6344L4.36459 25.5484L17.4016 17.8208V13.221L12.2499 16.1912Z" fill="black"/>
<path d="M20.3242 34.9845V30.3321L41.1151 18.2939L53.8368 25.8112V30.3321L41.1151 22.7885L20.3242 34.9845Z" fill="black"/>
<path d="M20.3242 44.8937V40.2151L41.1151 28.2031L53.8368 35.6942V40.2413L41.1151 32.6977L20.3242 44.8937Z" fill="black"/>
<path d="M20.3242 54.8029V50.1243L41.1151 38.1123L53.8368 45.6033V50.1505L41.1151 42.6069L20.3242 54.8029Z" fill="black"/>
<path d="M41.1677 13.7467L20.3242 25.6273V21.2378L41.1414 9.12068L53.8893 16.5592V21.1852L41.1677 13.7467Z" fill="black"/>
<path d="M41.194 4.54719L20.3242 16.5854V11.9594L41.194 0L61.9849 12.1697V54.8029L57.9108 52.4373L57.7794 14.3513L41.194 4.54719Z" fill="black"/>
<path d="M69.3919 16.3489H68.5508V51.5962H69.3919V16.3489Z" fill="black"/>
</svg>
